<svg id="svg" version="1.1" xmlns="http://www.w3.org/2000/svg" xmlns:xlink="http://www.w3.org/1999/xlink" width="400" height="394.7368421052631" viewBox="0, 0, 400,394.7368421052631"><g id="svgg"><path id="path0" d="M145.181 8.554 C 145.035 8.699,144.916 9.852,144.916 11.116 L 144.916 13.412 134.551 13.518 L 124.186 13.623 124.068 16.079 L 123.951 18.536 118.738 18.646 L 113.524 18.756 113.408 21.410 L 113.291 24.064 108.274 24.174 L 103.258 24.284 103.140 26.741 L 103.023 29.197 97.810 29.308 L 92.596 29.418 92.479 31.874 L 92.362 34.331 87.148 34.441 L 81.935 34.551 81.819 37.198 L 81.702 39.845 79.252 39.962 L 76.802 40.079 76.684 42.529 L 76.567 44.978 74.118 45.095 L 71.668 45.212 71.551 47.669 L 71.434 50.125 66.220 50.235 L 61.007 50.346 60.891 52.992 L 60.774 55.639 58.324 55.757 L 55.874 55.874 55.757 58.324 L 55.639 60.774 52.992 60.891 L 50.346 61.007 50.228 63.456 L 50.111 65.906 47.662 66.023 L 45.212 66.140 45.102 71.354 L 44.992 76.567 42.536 76.684 L 40.079 76.802 39.962 79.252 L 39.845 81.702 37.198 81.819 L 34.551 81.935 34.435 84.582 L 34.318 87.229 31.868 87.346 L 29.418 87.463 29.307 92.479 L 29.197 97.495 26.741 97.612 L 24.284 97.730 24.168 100.377 L 24.052 103.025 21.404 103.141 L 18.756 103.258 18.646 108.274 L 18.535 113.290 16.079 113.407 L 13.623 113.524 13.516 121.304 L 13.409 129.084 10.949 129.202 L 8.490 129.319 8.490 144.916 L 8.490 160.513 13.506 160.624 L 18.522 160.734 18.639 163.190 L 18.756 165.647 21.403 165.763 L 24.050 165.879 24.167 168.330 L 24.284 170.780 26.735 170.897 L 29.185 171.014 29.301 173.661 L 29.418 176.308 34.631 176.418 L 39.844 176.528 39.962 178.985 L 40.079 181.441 42.529 181.558 L 44.978 181.675 45.095 184.125 L 45.212 186.575 50.426 186.685 L 55.641 186.795 55.757 189.449 L 55.874 192.103 63.376 192.103 L 70.879 192.103 70.983 178.992 L 71.087 165.881 73.549 165.764 L 76.012 165.647 76.119 157.866 L 76.226 150.085 78.883 149.968 L 81.540 149.852 81.650 144.638 L 81.760 139.425 84.217 139.308 L 86.673 139.191 86.790 136.741 L 86.907 134.291 89.357 134.174 L 91.807 134.057 91.917 128.843 L 92.027 123.629 94.681 123.512 L 97.335 123.396 97.452 120.946 L 97.569 118.497 100.018 118.380 L 102.468 118.263 102.585 115.813 L 102.702 113.363 105.152 113.246 L 107.601 113.129 107.718 110.482 L 107.834 107.834 110.482 107.718 L 113.129 107.601 113.246 105.152 L 113.363 102.702 115.813 102.585 L 118.263 102.468 118.380 100.011 L 118.497 97.555 123.711 97.445 L 128.924 97.335 129.040 94.681 L 129.157 92.027 134.174 91.917 L 139.191 91.807 139.308 89.350 L 139.425 86.893 144.638 86.783 L 149.852 86.673 149.969 84.212 L 150.087 81.750 160.433 81.645 L 170.780 81.540 170.897 78.875 L 171.013 76.209 192.318 76.209 L 213.623 76.209 213.623 78.973 L 213.623 81.737 221.520 81.737 L 229.418 81.737 229.418 84.304 L 229.418 86.871 237.315 86.871 L 245.212 86.871 245.212 89.437 L 245.212 92.004 247.761 92.004 L 250.309 92.004 250.426 94.669 L 250.543 97.335 255.775 97.445 L 261.007 97.555 261.007 100.110 L 261.007 102.665 263.555 102.665 L 266.102 102.665 266.220 105.133 L 266.338 107.601 268.788 107.718 L 271.238 107.835 271.355 110.482 L 271.471 113.129 274.136 113.246 L 276.802 113.363 276.802 115.911 L 276.802 118.460 279.349 118.460 L 281.897 118.460 282.015 120.928 L 282.132 123.396 284.583 123.513 L 287.033 123.630 287.149 126.277 L 287.266 128.924 289.931 129.041 L 292.596 129.158 292.596 134.273 L 292.596 139.388 295.151 139.388 L 297.707 139.388 297.817 144.620 L 297.927 149.852 300.384 149.969 L 302.840 150.086 302.950 155.300 L 303.060 160.513 305.726 160.630 L 308.391 160.747 308.391 171.193 L 308.391 181.639 310.949 181.639 L 313.507 181.639 313.615 189.437 L 313.722 197.236 324.068 197.341 L 334.415 197.446 334.532 199.908 L 334.650 202.369 355.380 202.369 L 376.111 202.369 376.228 199.901 L 376.346 197.433 378.893 197.433 L 381.441 197.433 381.441 179.072 L 381.441 160.711 378.881 160.711 L 376.321 160.711 376.216 150.346 L 376.111 139.980 373.651 139.863 L 371.191 139.746 371.084 131.966 L 370.977 124.186 368.312 124.069 L 365.647 123.952 365.647 118.639 L 365.647 113.327 363.092 113.327 L 360.537 113.327 360.426 108.292 L 360.316 103.258 357.859 103.140 L 355.403 103.023 355.293 97.810 L 355.183 92.596 352.517 92.479 L 349.852 92.363 349.852 89.814 L 349.852 87.266 347.297 87.266 L 344.742 87.266 344.631 82.034 L 344.521 76.802 342.072 76.684 L 339.622 76.567 339.505 74.118 L 339.388 71.668 336.723 71.552 L 334.057 71.435 334.057 68.689 L 334.057 65.943 331.509 65.943 L 328.962 65.943 328.844 63.475 L 328.727 61.007 326.277 60.890 L 323.827 60.773 323.710 58.323 L 323.593 55.874 320.928 55.757 L 318.263 55.640 318.263 52.894 L 318.263 50.148 315.715 50.148 L 313.167 50.148 313.049 47.680 L 312.932 45.212 307.700 45.102 L 302.468 44.992 302.468 42.437 L 302.468 39.882 299.919 39.882 L 297.371 39.882 297.254 37.216 L 297.137 34.551 291.905 34.441 L 286.673 34.330 286.673 31.775 L 286.673 29.220 281.559 29.220 L 276.444 29.220 276.327 26.752 L 276.209 24.284 270.995 24.174 L 265.781 24.064 265.664 21.410 L 265.548 18.756 260.316 18.646 L 255.084 18.536 255.084 15.981 L 255.084 13.425 244.639 13.425 L 234.194 13.425 234.076 10.958 L 233.959 8.490 189.702 8.389 C 165.361 8.334,145.327 8.408,145.181 8.554 " stroke="none" fill="#ffffff" fill-rule="evenodd"></path><path id="path1" d="M3.030 192.561 C 2.884 192.707,2.764 193.952,2.764 195.327 L 2.764 197.828 1.382 197.828 L 0.000 197.828 0.000 210.859 L 0.000 223.889 1.377 223.889 L 2.753 223.889 2.857 236.821 L 2.962 249.753 5.619 249.870 L 8.276 249.986 8.383 257.767 L 8.490 265.548 10.949 265.665 L 13.409 265.783 13.516 273.563 L 13.623 281.343 16.079 281.460 L 18.536 281.577 18.646 286.791 L 18.756 292.004 21.403 292.120 L 24.050 292.237 24.167 294.687 L 24.284 297.137 26.741 297.254 L 29.197 297.372 29.308 302.585 L 29.418 307.799 31.867 307.916 L 34.317 308.033 34.434 310.482 L 34.551 312.932 37.199 313.048 L 39.846 313.165 39.963 315.812 L 40.079 318.460 42.535 318.577 L 44.991 318.695 45.102 323.711 L 45.212 328.727 47.663 328.844 L 50.113 328.961 50.229 331.608 L 50.346 334.255 52.992 334.371 L 55.639 334.487 55.757 336.938 L 55.874 339.388 58.323 339.505 L 60.773 339.622 60.890 342.072 L 61.007 344.521 66.221 344.631 L 71.435 344.741 71.552 347.395 L 71.668 350.049 74.118 350.166 L 76.567 350.284 76.684 352.733 L 76.802 355.183 79.251 355.300 L 81.701 355.417 81.818 357.866 L 81.935 360.316 87.149 360.426 L 92.363 360.536 92.480 363.190 L 92.596 365.844 97.810 365.954 L 103.023 366.064 103.140 368.521 L 103.258 370.977 108.274 371.088 L 113.290 371.198 113.407 373.654 L 113.524 376.111 118.738 376.221 L 123.953 376.331 124.069 378.985 L 124.186 381.639 134.532 381.744 L 144.879 381.849 144.996 384.311 L 145.114 386.772 189.536 386.772 L 233.959 386.772 234.076 384.304 L 234.194 381.836 244.639 381.836 L 255.084 381.836 255.084 379.084 L 255.084 376.331 260.316 376.221 L 265.548 376.111 265.665 373.654 L 265.782 371.197 270.996 371.087 L 276.209 370.977 276.327 368.509 L 276.444 366.041 281.559 366.041 L 286.673 366.041 286.673 363.289 L 286.673 360.536 291.905 360.426 L 297.137 360.316 297.255 357.848 L 297.372 355.380 299.920 355.380 L 302.468 355.380 302.468 352.825 L 302.468 350.270 307.700 350.160 L 312.932 350.049 313.049 347.384 L 313.165 344.719 315.714 344.719 L 318.263 344.719 318.263 342.170 L 318.263 339.621 320.928 339.505 L 323.593 339.388 323.710 336.938 L 323.827 334.489 326.277 334.372 L 328.727 334.255 328.843 331.589 L 328.960 328.924 331.509 328.924 L 334.057 328.924 334.057 326.375 L 334.057 323.827 336.723 323.710 L 339.388 323.593 339.505 321.144 L 339.622 318.694 342.072 318.577 L 344.521 318.460 344.631 313.228 L 344.742 307.996 347.297 307.996 L 349.852 307.996 349.852 305.447 L 349.852 302.899 352.517 302.782 L 355.183 302.665 355.293 297.452 L 355.403 292.238 357.859 292.121 L 360.316 292.004 360.426 286.772 L 360.536 281.540 363.091 281.540 L 365.647 281.540 365.647 276.425 L 365.647 271.310 368.312 271.193 L 370.977 271.076 371.084 263.296 L 371.191 255.516 373.651 255.399 L 376.111 255.281 376.111 247.581 L 376.111 239.882 373.661 239.764 L 371.211 239.647 371.094 237.198 L 370.977 234.748 368.312 234.632 L 365.647 234.515 365.647 231.966 L 365.647 229.418 360.531 229.418 L 355.416 229.418 355.299 226.752 L 355.183 224.087 352.517 223.970 L 349.852 223.853 349.852 221.305 L 349.852 218.756 347.304 218.756 L 344.756 218.756 344.639 216.288 L 344.521 213.820 339.289 213.710 L 334.057 213.600 334.057 210.847 L 334.057 208.095 331.509 208.095 L 328.962 208.095 328.844 205.627 L 328.727 203.159 321.224 203.159 L 313.722 203.159 313.611 208.391 L 313.501 213.623 310.946 213.623 L 308.391 213.623 308.391 224.069 L 308.391 234.515 305.726 234.632 L 303.060 234.748 302.950 239.962 L 302.840 245.175 300.384 245.292 L 297.927 245.410 297.816 250.444 L 297.706 255.479 295.151 255.479 L 292.596 255.479 292.596 260.791 L 292.596 266.104 289.931 266.221 L 287.266 266.338 287.148 268.787 L 287.031 271.237 284.582 271.354 L 282.132 271.471 282.016 274.136 L 281.899 276.802 279.350 276.802 L 276.802 276.802 276.802 279.350 L 276.802 281.899 274.136 282.016 L 271.471 282.132 271.354 284.582 L 271.237 287.031 268.787 287.148 L 266.338 287.266 266.221 289.931 L 266.104 292.596 263.556 292.596 L 261.007 292.596 261.007 295.151 L 261.007 297.707 255.775 297.817 L 250.543 297.927 250.425 300.395 L 250.308 302.863 247.760 302.863 L 245.212 302.863 245.212 305.627 L 245.212 308.391 237.315 308.391 L 229.418 308.391 229.418 310.958 L 229.418 313.524 221.520 313.524 L 213.623 313.524 213.623 316.091 L 213.623 318.657 189.752 318.657 L 165.882 318.657 165.764 316.190 L 165.647 313.722 157.867 313.615 L 150.087 313.508 149.969 311.048 L 149.852 308.588 144.638 308.478 L 139.424 308.368 139.307 305.714 L 139.191 303.060 134.175 302.950 L 129.159 302.839 129.041 300.383 L 128.924 297.927 123.711 297.817 L 118.497 297.707 118.380 295.250 L 118.263 292.794 115.812 292.677 L 113.362 292.559 113.246 289.913 L 113.129 287.266 110.482 287.149 L 107.835 287.033 107.718 284.583 L 107.601 282.132 105.152 282.015 L 102.702 281.898 102.585 279.449 L 102.468 276.999 100.018 276.882 L 97.567 276.765 97.451 274.118 L 97.335 271.471 94.681 271.354 L 92.027 271.238 91.917 266.221 L 91.807 261.204 89.356 261.087 L 86.906 260.970 86.790 258.323 L 86.673 255.676 84.217 255.559 L 81.761 255.442 81.650 250.426 L 81.540 245.410 78.883 245.293 L 76.226 245.177 76.119 237.396 L 76.012 229.615 73.548 229.498 L 71.085 229.380 70.982 213.703 L 70.879 198.026 65.664 197.916 L 60.450 197.806 60.334 195.152 L 60.217 192.498 31.756 192.396 C 16.103 192.341,3.176 192.415,3.030 192.561 " stroke="none" fill="#14241c" fill-rule="evenodd"></path><path id="path2" d="" stroke="none" fill="#0cc0b0" fill-rule="evenodd"></path><path id="path3" d="" stroke="none" fill="#0cc0b0" fill-rule="evenodd"></path><path id="path4" d="" stroke="none" fill="#0cc0b0" fill-rule="evenodd"></path></g></svg>